<?xml version="1.0" encoding="UTF-8"?><svg id="uuid-22485364-7e2c-4d34-96ff-a6ba43a7342b" xmlns="http://www.w3.org/2000/svg" viewBox="0 0 62.24 59.77"><defs><style>.uuid-402748fe-e40c-492a-8594-1eb84764a58f{fill:none;}.uuid-402748fe-e40c-492a-8594-1eb84764a58f,.uuid-f638cc6c-89c0-445d-ad35-986c1bc9827d{stroke-width:0px;}.uuid-f638cc6c-89c0-445d-ad35-986c1bc9827d{fill:#f05622;}</style></defs><path class="uuid-402748fe-e40c-492a-8594-1eb84764a58f" d="m39.65,22.3c-.14.03-.28.05-.43.07l.07.31.02.09c.11-.16.26-.35.34-.48Z"/><path class="uuid-402748fe-e40c-492a-8594-1eb84764a58f" d="m38.93,23.51l-.1.04c-3.18,1.26-5.75,3.09-7.67,5.45.67-.39,1.65-.91,2.9-1.55v-.07s.04-.47.04-.47l.43-.18c.47-.19,1.16-.46,2.06-.8l.1-.28.31-.12c.78-.31,1.65-.61,2.5-.9l-.25-.22.49-.25h.32l.46-.53-1.06-.14-.49.35-.05-.34Z"/><path class="uuid-402748fe-e40c-492a-8594-1eb84764a58f" d="m15.45,37.62c0,.06-.01.1-.02.16-.03.26-.06.49-.09.72,0,.04,0,.07-.01.1-.02.12-.04.26-.05.38.38-.21.66-.36.85-.46l.42.42.56-.6.82-.88-.14-.71.56-.85.25.42-.14.25c.02.49-.01.82-.11.99.21.35.35.56.44.7.05.08.11.16.12.18.31-.07.58-.17.85-.27.08-.03.17-.05.25-.08.08-.48.16-.92.24-1.33.25-1.26.51-2.18.78-2.77.04-.14.07-.25.11-.38.47-1.58.81-2.82,1.01-3.74.02-.1.05-.23.07-.32.02,0,.04-.01.05-.02.16-.04.3-.09.45-.13.11-.03.23-.06.34-.1.26-.73.45-1.28.56-1.66l-.02-.03-.21-.38-.09-.16c.06-.01.16-.04.22-.06.15-.04.33-.08.53-.14.08-.02.11-.03.2-.05.21-.43.38-.76.53-1.08.22-.46.4-.84.49-1.07l-.18.04-1.23.29-.36.09c.73-2.35,1.79-5.34,3.17-8.96-.26.02-.62.08-1.09.18.19-.64.34-1.11.46-1.41-.78.19-1.36.34-1.76.46l-1.27,1.06c-.07-.33-.14-.68-.21-1.06l-1.38.42.18.28-.18.35v.23s-.04.82-.04.82l-.53,1.2-.3-1.44-.12-.57.53-.74-1.62.49c-.04.15-.07.29-.11.44-.53,2.04-.97,3.91-1.34,5.63-.09.4-.17.8-.25,1.18-.17.86-.33,1.68-.46,2.45-1.52.57-2.54.95-3.07,1.16-.19.07-.33.13-.39.15,1.11-4.68,1.95-8.2,2.54-10.55-.21.09-.62.42-1.23.99-.49.47-.88.71-1.16.71-.14,0-.33-.04-.56-.12-.08-.03-.12-.02-.18-.04-.06-.02-.11-.03-.16-.03-.07-.01-.17-.05-.22-.05-.21,0-.39.09-.53.28l.11.14-.14.25h0s.03.71.03.71l-.32.85-.28-1.07-.07-.27c-.46.38-.81.56-1.1.65,0,0,0,0,0,0-.09.03-.2.09-.27.09-.09,0-.22-.02-.39-.07-.16-.05-.28-.07-.38-.07,0,0,0,0-.01,0-.14,0-.31.04-.49.11-.09.47-.16,1-.24,1.49-.94,5.62-1.65,12.1-2.14,19.43-.04.63-.09,1.22-.13,1.87h.11c.15-.37.27-.65.4-.97.4-.97.74-1.8.97-2.35-.05.82-.05,1.73,0,2.74.07-.04.14-.09.2-.13.06-.05.13-.09.19-.14.35-.27.69-.54,1.09-.78l-.21-.81.67-1.09.32.53-.14.32.04.92-.21.49c.68-.35,1.2-.66,1.55-.92.21-1.6.5-3.24.78-4.87.15-.88.25-1.73.42-2.62,0,0,0-.02,0-.03,1.98-.89,3.22-1.41,3.74-1.55-.38,2.54-.67,4.59-.88,6.17Zm6.74-19.22l.21.42-.11.25-.04.74-.39.85-.25-1.41.56-.85Zm-1.27,2.5l.14.32-.07.18v.49l-.28.56-.18-.95.39-.6Zm-11.61,15.38v.74l-.35.85-.02-.08-.3-1.3.53-.88.09.16.15.27-.11.25Z"/><path class="uuid-402748fe-e40c-492a-8594-1eb84764a58f" d="m29.04,34.72c-.08.05-.18.11-.26.15.04.06.06.13.1.19l.16-.35Z"/><path class="uuid-402748fe-e40c-492a-8594-1eb84764a58f" d="m14.46,39.39l.03-.23-.11.12s.05.07.08.11Z"/><path class="uuid-402748fe-e40c-492a-8594-1eb84764a58f" d="m31.42,35.68c0-.3,0-.64,0-1.03-.38.23-.76.45-1.16.69l-.5.3c.28.09.6.14.95.14.2,0,.46-.06.7-.09Z"/><polygon class="uuid-402748fe-e40c-492a-8594-1eb84764a58f" points="41.34 22.6 41.31 22.39 40.88 22.69 41.35 22.67 41.34 22.6"/><path class="uuid-402748fe-e40c-492a-8594-1eb84764a58f" d="m11.58,18.23l.05-.07c.28-.38.68-.58,1.13-.58.23,0,.49.05.81.17.19.07.28.08.29.08.03,0,.23-.08.68-.51.89-.82,1.23-1.03,1.44-1.12l1.41-.63-.37,1.5c-.04.16-.09.36-.13.52l-.34,1.23-1.63,7.19.93-.32,1.62-7.75.92-.5h0s.34-1.61.34-1.61l4.66-1.43.12.64.42-.35,3.34-.85s-.56,1.47-.59,1.55l1.14-.1-.43,1.13c-1.14,2.97-2.06,5.53-2.75,7.65l.19-.05c.96-.94,2.02-1.86,3.2-2.74.39-.29.81-.54,1.21-.81.47-.39.93-.78,1.44-1.15,2.71-2.03,5.87-3.44,9.4-4.19l1.19-.25-.31,1.18-.35,1.34-.03.13-.08.11-.82,1.17.05.37.08.44.11.6.07.37-.26.27-.69.74v.06c.13-.07.23-.13.38-.24.47-.3.97-.55,1.46-.82l.03-.15.02-.45.47-.12c.11-.05.35-.2.73-.46,2.02-1.3,4.18-2.35,6.44-3.15,1.94-.68,3.75-1.09,5.41-1.24-2.91-5.85-8.19-10.3-14.6-12.09-4.89.75-8.38,4.08-11.26,8.54,1.9-2.86,3.73-6.18,5.97-7.04l-2.67.54c1.12-1.19,2.32-2.22,3.72-2.81-.68-.06-1.35-.1-2.04-.1-10.63,0-19.59,7.12-22.4,16.85.11-.08.24-.17.39-.29l.49-.39Z"/><path class="uuid-402748fe-e40c-492a-8594-1eb84764a58f" d="m59.65,16.74c-.9-.56-2.07-.83-3.4-.93-.3-.02-.55-.09-.87-.09-.34,0-.69.03-1.04.05-1.68.12-3.52.51-5.52,1.22-1.26.44-2.46.98-3.64,1.58-.9.46-1.78.94-2.64,1.49-.49.33-.79.51-.88.53l-.11.56c.4-.05.8-.12,1.2-.21-.14.24-.37.56-.63.9-.05.06-.06.09-.11.16l.07.45v.04s.18-.12.18-.12l.32-.23.13.02.93.12-.46.53h-.32l-.49.25.49.42c-.18.1-.31.15-.48.23.64-.19,1.24-.39,1.9-.57l1.42-.39-.52,1.38c-.12.32-.27.79-.44,1.4l.31-.02-.34,1.06-.53,1.62-.11.34-.34.13h-.01c-.47,3.21-.92,7.08-1.35,11.63-.05.49-.09.96-.14,1.46l.69-.5.08-.06.42.35c.1-.12.17-.21.26-.32.52-.65.94-1.17,1.22-1.51l.35.42v-.67l.41-1.02.41,1.66-.39.63v.04c.47-.21.82-.38,1.06-.49.21-1.83.33-2.76.35-2.79.02-.14.1-.35.23-.63s.21-.49.23-.63l.39-1.8c3.49-1.76,6.19-3.44,8.14-5.06.04-.03.08-.06.12-.09,1.34-1.13,2.41-2.31,3.26-3.54.93-1.36,1.57-2.77,1.89-4.25.09-.45.14-.88.14-1.31,0-1.48-.61-2.62-1.83-3.42Zm-15.13,21.69l-.21-.39.14-.21v-.6l.16-.39.14-.35.23,1.2-.46.74Zm1.13-17.46h-.21l-.67.32-.78.04,1.23-.85.78.11-.35.39Zm3.63,7.97c.06-.22.11-.42.17-.63.51-1.88.96-3.46,1.35-4.73.19-.63.37-1.21.53-1.69.26-.02.51-.04.74-.04,1.86,0,2.79.62,2.79,1.87,0,1.58-1.86,3.32-5.57,5.22Z"/><path class="uuid-402748fe-e40c-492a-8594-1eb84764a58f" d="m28.57,33.85l.14-.03.32-.34h-.41c-.03.14-.04.25-.05.37Z"/><path class="uuid-402748fe-e40c-492a-8594-1eb84764a58f" d="m50.47,27.44s.02-.01.03-.02c.82-.81,1.25-1.59,1.25-2.33,0-.4-.13-.71-.32-.98-.29.97-.6,2.04-.96,3.33Z"/><path class="uuid-402748fe-e40c-492a-8594-1eb84764a58f" d="m42.72,25.88h.78l.31-.21.15-.1c.15-.53.28-.94.39-1.28.05-.14.1-.3.14-.41-.45.12-.85.26-1.29.39-.18.05-.36.11-.54.16-.33.1-.67.2-.99.3-.12.04-.24.07-.36.11-.12.04-.25.07-.36.11-.85.28-1.64.57-2.43.86-.4.15-.84.29-1.22.44l-.1.28h0c-1.06.4-1.85.71-2.36.92l-.04.49c-1.48.75-2.59,1.34-3.32,1.76-.12.19-.28.47-.49.85l.42.42c-.38.42-.66.74-.85.95l.39.63.49-.42h.71l-.32.34-.18.04-.53.31-.35.07c-.23.47-.42.86-.58,1.19-.11.24-.22.46-.3.63.56-.33,1.06-.63,1.58-.93,1.12-.66,2.18-1.27,3.12-1.79-.07,1.93-.06,3.12.04,3.56-1.28.52-2.29.77-3.16.88-.24.03-.52.11-.72.11-.85,0-1.55-.22-2.1-.67-.21-.17-.35-.39-.48-.61-.18-.3-.29-.65-.31-1.05,0-.06-.03-.11-.03-.17,0-.04.02-.1.02-.15.02-.42.14-.9.33-1.41.03-.07.05-.14.08-.22.2-.49.46-1.02.82-1.59.32-.51.68-1.04,1.11-1.61,2.05-2.73,4.84-4.8,8.4-6.21l-.07-.34-.02-.08-.23-1.06.95-1.02-.11-.6-.53.53-.88.11.28-.46.25-.04.6-.46.21-.07-.11-.74.99-1.41.35-1.34c-2.23.47-4.27,1.24-6.16,2.23-1.02.54-2.02,1.13-2.94,1.82-1.98,1.48-3.65,3.05-5.02,4.72l-.14.33c-.17.42-.52,1.14-1.05,2.2l-.15.29-.31.09s-.02,0-.03.01l-.09.3c-.12.38-.31.94-.57,1.69l-.12.33-.33.12c-.15.05-.31.1-.47.15-.2.88-.54,2.1-.98,3.57-.07.5-.15.99-.15,1.5,0,1.83.45,3.35,1.34,4.55.99,1.36,2.36,2.05,4.13,2.05,1.86,0,4.42-.56,7.69-1.69.07.99.14,1.81.21,2.47l.74-.42.49.21s.03-.03.04-.04c.28-.33.68-.74,1.2-1.27.42.26.74.47.95.63.32-.12.56-.22.76-.31.06-.03.14-.06.19-.08v-2.29c.03-.05.04-.13.06-.18.17-.42.29-.92.33-1.54.05-.59.08-1.19.11-1.8.49-2.96.91-5.2,1.23-6.7l1.83-.69.4-.15h.03s.53-1.63.53-1.63l-.3.02-.23.02-.07.07h-.09s-.19.04-.19.04l-.81.53-1.02.21.35-.33,1.09-1.01Zm-6.87-5.58l.34-.53.28-.04.81-.6,1.02-.32-1.38,1.41-1.07.13h-.06s.05-.07.05-.07Zm-1.11,1.77l.14-.04.42-.32.56-.18-.74.78-.6.07.21-.32Zm-11.85,15.49l-.21-.42.18-.25v-.74l.48-.81.19,1.41-.63.81Zm16.97-10.58h-.21l-.53.35-.64.14.32-.3.49-.47.11-.11h.71l-.25.39Z"/><path class="uuid-402748fe-e40c-492a-8594-1eb84764a58f" d="m48.29,36.34c-.04.21-.13.47-.29.82-.15.33-.17.44-.17.45l-.04.24h0c-.04.28-.12.94-.3,2.51l-.05.4-.36.18c-.24.12-.59.29-1.07.5v.77l-.47-.57-.61.25v-.98l-.02-.02c-.25.31-.55.69-.9,1.12l-.48.6-.56-.47-.3.22-1.34.98.15-1.65c0-.09.02-.16.02-.25-.31.38-.68.84-1.18,1.46l-.42-.35-.78.56c.03-.29.05-.57.08-.85-.13.05-.25.1-.41.16l-.4.15-.34-.26c-.1-.08-.23-.17-.38-.27-.32.33-.58.61-.77.84l-.36.42-.51-.22-.15-.06-.42.24-1,.57-.12-1.14s0-.08-.01-.11c-.47.48-.85.88-1.11,1.18l-.49-.21-.74.42c-.06-.57-.12-1.29-.18-2.1-1.28.33-2.41.55-3.41.65-1.7.44-3.16.68-4.31.68-1.76,0-3.14-.68-4.13-2.05-.43-.57-.75-1.23-.97-1.95l-.32.08-.3-.3c-.06-.06-.11-.1-.36-.51l-.92.99-.53.57-.35-.35c-.14.04-.26.1-.41.13-.02-.02-.07-.1-.13-.19-.01,0-.02.01-.03.02l-.71.4c4.28,5.31,10.82,8.71,18.17,8.71,11.14,0,20.45-7.82,22.76-18.27-1.86,1.44-4.27,2.93-7.27,4.46l-.31,1.41Z"/><path class="uuid-f638cc6c-89c0-445d-ad35-986c1bc9827d" d="m62.24,20.16c0-1.74-.73-3.11-2.18-4.05-1.14-.7-2.59-1.05-4.28-1.1C50.62,6.05,40.97,0,29.89,0,13.38,0,0,13.38,0,29.89c0,4.95,1.22,9.6,3.35,13.71,0,0,0,0,0,0l.16.32c4.23,7.93,11.92,13.71,21.05,15.36,4.92-.73,8.43-4.08,11.32-8.55-1.9,2.86-3.73,6.18-5.97,7.04l2.67-.54c-.97,1.02-2,1.91-3.15,2.52.16,0,.31.02.46.02,16.51,0,29.89-13.38,29.89-29.89,0-1.06-.06-2.11-.17-3.15,1.22-1.62,2.09-3.32,2.47-5.11.11-.5.16-.99.16-1.46ZM33.1,2.07c.69,0,1.37.04,2.04.1-1.4.59-2.6,1.62-3.72,2.81l2.67-.54c-2.25.86-4.07,4.18-5.97,7.04,2.88-4.45,6.37-7.79,11.26-8.54,6.41,1.79,11.69,6.24,14.6,12.09-1.67.15-3.48.56-5.41,1.24-2.26.79-4.42,1.85-6.44,3.15-.38.25-.61.4-.73.46l-.47.12-.02.45-.03.15c-.48.27-.98.52-1.46.82-.15.1-.25.16-.37.24v-.06s.67-.74.67-.74l.26-.27-.07-.37-.11-.6-.08-.44-.05-.37.82-1.17.08-.11.03-.13.35-1.34.31-1.18-1.19.25c-3.53.75-6.69,2.16-9.4,4.19-.5.38-.97.76-1.44,1.15-.41.27-.82.52-1.21.81-1.18.88-2.24,1.79-3.2,2.74l-.19.05c.69-2.11,1.62-4.68,2.75-7.65l.43-1.13-1.14.1c.03-.08.59-1.55.59-1.55l-3.34.85-.42.35-.12-.64-4.66,1.43-.34,1.62h0s-.92.5-.92.5l-1.62,7.75-.93.32,1.63-7.19.34-1.23c.04-.17.09-.37.13-.52l.37-1.5-1.41.63c-.21.09-.55.3-1.44,1.12-.45.43-.65.5-.68.51,0,0-.1-.01-.29-.08-.32-.11-.58-.17-.81-.17-.45,0-.85.21-1.13.58l-.05.07-.49.39c-.15.12-.28.22-.39.29C13.52,9.19,22.47,2.07,33.1,2.07Zm9.19,24.94l.81-.53.19-.02h.09s.07-.08.07-.08l.23-.02.3-.02-.53,1.62h-.03s-.4.16-.4.16l-1.83.69c-.33,1.51-.74,3.74-1.23,6.7-.02.61-.06,1.21-.11,1.8-.04.62-.16,1.12-.33,1.54-.02.06-.04.13-.06.18v2.29c-.05.02-.13.05-.19.08-.2.08-.44.18-.76.31-.21-.16-.53-.38-.95-.63-.52.52-.92.94-1.2,1.27,0,.01-.03.03-.04.04l-.49-.21-.74.42c-.07-.66-.14-1.48-.21-2.47-3.27,1.13-5.83,1.69-7.69,1.69s-3.14-.68-4.13-2.05c-.89-1.2-1.34-2.72-1.34-4.55,0-.51.08-1,.15-1.5.44-1.47.78-2.69.98-3.57.16-.05.32-.1.47-.15l.33-.12.12-.33c.26-.74.45-1.3.57-1.69l.09-.3s.02,0,.03-.01l.31-.09.15-.29c.53-1.06.87-1.78,1.05-2.2l.14-.33c1.37-1.66,3.04-3.24,5.02-4.72.93-.69,1.92-1.28,2.94-1.82,1.89-1,3.93-1.76,6.16-2.23l-.35,1.34-.99,1.41.11.74-.21.07-.6.46-.25.04-.28.46.88-.11.53-.53.11.6-.95,1.02.23,1.06.02.08.07.34c-3.55,1.41-6.35,3.48-8.4,6.21-.44.57-.8,1.11-1.11,1.61-.35.57-.61,1.1-.82,1.59-.03.07-.06.14-.08.22-.19.51-.31.99-.33,1.41,0,.05-.02.1-.02.15,0,.06.03.11.03.17.02.4.13.74.31,1.05.13.22.27.44.48.61.55.45,1.25.67,2.1.67.21,0,.49-.08.72-.11.87-.11,1.88-.36,3.16-.88-.09-.45-.11-1.63-.04-3.56-.93.52-2,1.13-3.12,1.79-.52.3-1.02.6-1.58.93.08-.17.18-.39.3-.63.16-.34.35-.72.58-1.19l.35-.07.53-.31.18-.04.32-.34h-.71l-.49.42-.39-.63c.19-.21.47-.53.85-.95l-.42-.42c.21-.38.38-.66.49-.85.73-.42,1.83-1.01,3.32-1.76l.04-.49c.52-.21,1.31-.52,2.36-.92h0s.1-.28.1-.28c.38-.15.82-.29,1.22-.44.79-.29,1.58-.58,2.43-.86.12-.04.25-.07.36-.11.12-.04.24-.07.36-.11.32-.1.66-.2.99-.3.18-.05.36-.11.54-.16.44-.13.84-.26,1.29-.39-.04.11-.09.27-.14.41-.11.34-.24.75-.39,1.28l-.15.1-.31.21h-.78l-1.09,1.01-.35.33,1.02-.21Zm-2.82-3.51l1.06.14-.46.53h-.32l-.49.25.25.22c-.86.3-1.72.59-2.5.9l-.31.12-.1.28c-.91.34-1.6.61-2.06.8l-.43.18-.03.47v.07c-1.26.64-2.23,1.16-2.91,1.55,1.92-2.36,4.5-4.19,7.67-5.45l.1-.04.05.34.49-.35Zm-.25-1.12c.14-.03.28-.04.43-.07-.08.13-.23.32-.34.48l-.02-.09-.07-.31Zm-10.18,12.35l-.16.35c-.05-.06-.07-.13-.1-.19.08-.05.18-.11.26-.15Zm-.33-.9l-.14.03c0-.11.02-.23.05-.37h.41l-.32.34Zm1.06,1.82l.5-.3c.4-.24.78-.46,1.16-.69,0,.39,0,.73,0,1.03-.23.03-.5.09-.7.09-.36,0-.67-.05-.95-.14Zm11.11-12.95l.43-.29.03.2v.07s-.45.02-.45.02Zm-28.3,10.35c-.16.89-.27,1.74-.42,2.62-.27,1.63-.56,3.27-.78,4.87-.35.26-.87.56-1.55.92l.21-.49-.04-.92.14-.32-.32-.53-.67,1.09.21.81c-.4.24-.74.51-1.09.78-.06.05-.13.09-.19.14-.06.04-.13.08-.2.13-.05-1.01-.05-1.92,0-2.74-.23.55-.57,1.38-.97,2.35-.13.32-.25.6-.4.97h-.11c.04-.64.09-1.23.13-1.87.48-7.33,1.19-13.81,2.14-19.43.08-.49.15-1.02.24-1.49.19-.07.35-.11.49-.11,0,0,0,0,.01,0,.09,0,.22.02.38.07.16.05.29.07.39.07.07,0,.18-.06.27-.09,0,0,0,0,0,0,.29-.09.64-.28,1.1-.65l.07.27.28,1.07.32-.85-.03-.69h0s.14-.26.14-.26l-.11-.14c.14-.19.32-.28.53-.28.06,0,.15.04.22.05.05,0,.1.02.16.03.07.02.11.01.18.04.24.08.42.12.56.12.28,0,.67-.24,1.16-.71.61-.56,1.02-.89,1.23-.99-.59,2.35-1.43,5.87-2.54,10.55.06-.02.2-.08.39-.15.53-.2,1.55-.58,3.07-1.16.13-.77.28-1.59.46-2.45.08-.38.16-.78.25-1.18.37-1.71.81-3.58,1.34-5.63.04-.15.07-.29.11-.44l1.62-.49-.53.74.12.57.3,1.44.53-1.2.03-.82v-.23s.18-.35.18-.35l-.18-.28,1.38-.42c.07.38.14.73.21,1.06l1.27-1.06c.4-.12.99-.27,1.76-.46-.12.31-.27.78-.46,1.41.47-.09.83-.15,1.09-.18-1.39,3.62-2.45,6.61-3.17,8.96l.36-.09,1.23-.29.18-.04c-.1.24-.27.62-.49,1.07-.15.32-.32.66-.53,1.08-.08.02-.12.03-.2.05-.2.06-.38.1-.53.14-.06.01-.17.05-.22.06l.09.16.21.38.02.03c-.12.38-.31.93-.56,1.66-.1.04-.23.06-.34.1-.15.05-.29.09-.45.13-.02,0-.04.01-.05.02-.02.1-.05.22-.07.32-.21.92-.54,2.16-1.01,3.74-.04.13-.07.25-.11.38-.27.59-.53,1.51-.78,2.77-.08.41-.16.85-.24,1.33-.07.03-.17.05-.25.08-.27.1-.54.2-.85.27-.02-.02-.07-.1-.12-.18-.09-.14-.23-.35-.44-.7.09-.16.13-.49.11-.99l.14-.25-.25-.42-.56.85.14.71-.82.88-.56.6-.42-.42c-.19.09-.47.25-.85.46.01-.11.03-.26.05-.38,0-.03.01-.06.01-.1.03-.23.06-.46.09-.72,0-.06.01-.1.02-.16.21-1.57.51-3.63.88-6.17-.52.14-1.76.66-3.74,1.55,0,0,0,.02,0,.03Zm1.87,6.36s-.06-.07-.08-.11l.11-.12-.03.23Zm18.64,9.35c-7.35,0-13.89-3.4-18.17-8.71l.71-.4s.02-.01.03-.02c.06.09.11.17.13.19.15-.04.27-.09.41-.13l.35.35.53-.57.92-.99c.26.41.31.46.36.51l.3.3.32-.08c.22.72.54,1.37.97,1.95.99,1.36,2.36,2.05,4.13,2.05,1.15,0,2.61-.24,4.31-.68,1-.1,2.13-.31,3.41-.65.06.82.12,1.53.18,2.1l.74-.42.49.21c.26-.3.64-.7,1.11-1.18,0,.03,0,.08.01.11l.12,1.14,1-.57.42-.24.15.06.51.22.36-.42c.19-.23.45-.5.77-.84.15.1.28.19.38.27l.34.26.4-.15c.16-.06.28-.11.41-.16-.03.29-.05.56-.08.85l.78-.56.42.35c.5-.62.87-1.08,1.18-1.46,0,.09-.02.16-.02.25l-.15,1.65,1.34-.98.3-.22.56.47.48-.6c.35-.43.65-.81.9-1.12l.02.02v.98l.61-.25.47.57v-.77c.47-.21.83-.38,1.07-.5l.36-.18.05-.4c.18-1.58.27-2.23.3-2.51h0s.04-.24.04-.24c0,0,.02-.12.17-.45.16-.35.25-.61.29-.82l.31-1.41c3-1.53,5.41-3.02,7.27-4.46-2.32,10.45-11.62,18.27-22.76,18.27Zm28.24-27.27c-.32,1.48-.96,2.9-1.89,4.25-.84,1.23-1.92,2.41-3.26,3.54-.04.03-.08.06-.12.09-1.94,1.62-4.65,3.31-8.14,5.06l-.39,1.8c-.02.14-.1.35-.23.63s-.21.49-.23.63c-.02.02-.14.95-.35,2.79-.24.12-.59.28-1.06.49v-.04l.39-.63-.41-1.66-.41,1.02v.67l-.35-.42c-.28.34-.7.87-1.22,1.51-.09.11-.16.2-.26.32l-.42-.35-.08.06-.69.5c.05-.5.09-.97.14-1.46.43-4.55.88-8.42,1.35-11.62h.01s.34-.13.34-.13l.11-.34.53-1.62.34-1.06-.31.02c.17-.61.32-1.08.44-1.4l.52-1.38-1.42.39c-.66.18-1.27.38-1.9.57.17-.08.3-.14.48-.23l-.49-.42.49-.25h.32l.46-.53-.93-.12-.13-.02-.32.23-.17.12v-.04s-.07-.45-.07-.45c.05-.06.07-.1.11-.16.26-.34.49-.66.63-.9-.4.09-.8.16-1.2.21l.11-.56c.09-.02.39-.2.88-.53.85-.55,1.74-1.03,2.64-1.49,1.18-.6,2.39-1.14,3.64-1.58,2-.7,3.84-1.09,5.52-1.22.35-.03.7-.05,1.04-.05.32,0,.57.07.87.09,1.33.1,2.5.37,3.4.93,1.22.8,1.83,1.94,1.83,3.42,0,.42-.05.86-.14,1.31Z"/><polygon class="uuid-f638cc6c-89c0-445d-ad35-986c1bc9827d" points="44.6 36.85 44.45 37.24 44.45 37.57 44.45 37.84 44.3 38.05 44.52 38.44 44.97 37.7 44.74 36.5 44.6 36.85"/><polygon class="uuid-f638cc6c-89c0-445d-ad35-986c1bc9827d" points="43.99 21.33 44.76 21.29 45.43 20.98 45.65 20.98 46 20.59 45.22 20.48 43.99 21.33"/><path class="uuid-f638cc6c-89c0-445d-ad35-986c1bc9827d" d="m52.07,21.86c-.24,0-.48.01-.74.04-.16.48-.34,1.06-.53,1.69-.38,1.28-.83,2.86-1.35,4.73-.06.22-.11.41-.17.63,3.72-1.9,5.57-3.65,5.57-5.22,0-1.25-.93-1.87-2.79-1.87Zm-1.57,5.56s-.02.01-.03.02c.36-1.29.67-2.36.96-3.33.19.27.32.58.32.98,0,.74-.43,1.52-1.25,2.33Z"/><polygon class="uuid-f638cc6c-89c0-445d-ad35-986c1bc9827d" points="36.93 20.23 38.31 18.82 37.28 19.14 36.47 19.74 36.19 19.78 35.85 20.3 35.8 20.38 35.86 20.37 36.93 20.23"/><polygon class="uuid-f638cc6c-89c0-445d-ad35-986c1bc9827d" points="35.87 21.54 35.31 21.72 34.89 22.03 34.74 22.07 34.53 22.39 35.13 22.32 35.87 21.54"/><polygon class="uuid-f638cc6c-89c0-445d-ad35-986c1bc9827d" points="39.49 26.58 39.4 26.58 39.29 26.69 38.8 27.16 38.48 27.47 39.12 27.33 39.65 26.97 39.86 26.97 40.11 26.58 39.68 26.58 39.49 26.58"/><polygon class="uuid-f638cc6c-89c0-445d-ad35-986c1bc9827d" points="22.86 36.14 22.86 36.88 22.68 37.13 22.89 37.56 23.53 36.74 23.34 35.33 22.86 36.14"/><polygon class="uuid-f638cc6c-89c0-445d-ad35-986c1bc9827d" points="9.17 35.62 8.64 36.5 8.94 37.79 8.96 37.87 9.31 37.03 9.31 36.29 9.42 36.04 9.26 35.77 9.17 35.62"/><polygon class="uuid-f638cc6c-89c0-445d-ad35-986c1bc9827d" points="22.26 19.81 22.29 19.07 22.4 18.82 22.19 18.4 21.62 19.25 21.87 20.66 22.26 19.81"/><polygon class="uuid-f638cc6c-89c0-445d-ad35-986c1bc9827d" points="20.99 21.89 20.99 21.4 21.06 21.22 20.92 20.91 20.53 21.5 20.7 22.46 20.99 21.89"/></svg>